<?xml version="1.0" encoding="UTF-8" standalone="no"?>
<!-- Created with Inkscape (http://www.inkscape.org/) -->

<svg
   xmlns:dc="http://purl.org/dc/elements/1.1/"
   xmlns:cc="http://creativecommons.org/ns#"
   xmlns:rdf="http://www.w3.org/1999/02/22-rdf-syntax-ns#"
   xmlns:svg="http://www.w3.org/2000/svg"
   xmlns="http://www.w3.org/2000/svg"
   xmlns:sodipodi="http://sodipodi.sourceforge.net/DTD/sodipodi-0.dtd"
   xmlns:inkscape="http://www.inkscape.org/namespaces/inkscape"
   width="56.725376mm"
   height="45.917709mm"
   viewBox="0 0 56.725376 45.917709"
   version="1.1"
   id="svg8"
   inkscape:version="0.92.5 (2060ec1f9f, 2020-04-08)"
   sodipodi:docname="logo.svg">
  <defs
     id="defs2">
    <marker
       inkscape:stockid="DotM"
       orient="auto"
       refY="0.0"
       refX="0.0"
       id="marker4453"
       style="overflow:visible"
       inkscape:isstock="true">
      <path
         id="path1053"
         d="M -2.5,-1.0 C -2.5,1.7600000 -4.7400000,4.0 -7.5,4.0 C -10.260000,4.0 -12.5,1.7600000 -12.5,-1.0 C -12.5,-3.7600000 -10.260000,-6.0 -7.5,-6.0 C -4.7400000,-6.0 -2.5,-3.7600000 -2.5,-1.0 z "
         style="fill-rule:evenodd;stroke:#399746;stroke-width:1pt;stroke-opacity:1;fill:#399746;fill-opacity:1"
         transform="scale(0.4) translate(7.4, 1)" />
    </marker>
    <marker
       inkscape:isstock="true"
       style="overflow:visible"
       id="marker3734"
       refX="0.0"
       refY="0.0"
       orient="auto"
       inkscape:stockid="TriangleOutM">
      <path
         transform="scale(0.4)"
         style="fill-rule:evenodd;stroke:#000000;stroke-width:1pt;stroke-opacity:1;fill:#000000;fill-opacity:1"
         d="M 5.77,0.0 L -2.88,5.0 L -2.88,-5.0 L 5.77,0.0 z "
         id="path3732" />
    </marker>
    <marker
       inkscape:stockid="Arrow1Send"
       orient="auto"
       refY="0.0"
       refX="0.0"
       id="Arrow1Send"
       style="overflow:visible;"
       inkscape:isstock="true">
      <path
         id="path1004"
         d="M 0.0,0.0 L 5.0,-5.0 L -12.5,0.0 L 5.0,5.0 L 0.0,0.0 z "
         style="fill-rule:evenodd;stroke:#000000;stroke-width:1pt;stroke-opacity:1;fill:#000000;fill-opacity:1"
         transform="scale(0.2) rotate(180) translate(6,0)" />
    </marker>
    <marker
       inkscape:stockid="Arrow1Mend"
       orient="auto"
       refY="0.0"
       refX="0.0"
       id="marker2032"
       style="overflow:visible;"
       inkscape:isstock="true">
      <path
         id="path2030"
         d="M 0.0,0.0 L 5.0,-5.0 L -12.5,0.0 L 5.0,5.0 L 0.0,0.0 z "
         style="fill-rule:evenodd;stroke:#000000;stroke-width:1pt;stroke-opacity:1;fill:#000000;fill-opacity:1"
         transform="scale(0.4) rotate(180) translate(10,0)" />
    </marker>
    <marker
       inkscape:stockid="Arrow1Mend"
       orient="auto"
       refY="0.0"
       refX="0.0"
       id="marker1962"
       style="overflow:visible;"
       inkscape:isstock="true">
      <path
         id="path998"
         d="M 0.0,0.0 L 5.0,-5.0 L -12.5,0.0 L 5.0,5.0 L 0.0,0.0 z "
         style="fill-rule:evenodd;stroke:#000000;stroke-width:1pt;stroke-opacity:1;fill:#000000;fill-opacity:1"
         transform="scale(0.4) rotate(180) translate(10,0)" />
    </marker>
    <marker
       inkscape:isstock="true"
       style="overflow:visible;"
       id="marker1725"
       refX="0.0"
       refY="0.0"
       orient="auto"
       inkscape:stockid="Arrow2Lend">
      <path
         transform="scale(1.1) rotate(180) translate(1,0)"
         d="M 8.7185878,4.0337352 L -2.2072895,0.016013256 L 8.7185884,-4.0017078 C 6.9730900,-1.6296469 6.9831476,1.6157441 8.7185878,4.0337352 z "
         style="fill-rule:evenodd;stroke-width:0.625;stroke-linejoin:round;stroke:#000000;stroke-opacity:1;fill:#000000;fill-opacity:1"
         id="path1723" />
    </marker>
    <marker
       inkscape:stockid="Arrow1Mend"
       orient="auto"
       refY="0.0"
       refX="0.0"
       id="Arrow1Mend"
       style="overflow:visible;"
       inkscape:isstock="true">
      <path
         id="path977"
         d="M 0.0,0.0 L 5.0,-5.0 L -12.5,0.0 L 5.0,5.0 L 0.0,0.0 z "
         style="fill-rule:evenodd;stroke:#1a1a1a;stroke-width:1pt;stroke-opacity:1;fill:#1a1a1a;fill-opacity:1"
         transform="scale(0.4) rotate(180) translate(10,0)" />
    </marker>
    <marker
       inkscape:stockid="DotM"
       orient="auto"
       refY="0.0"
       refX="0.0"
       id="DotM"
       style="overflow:visible"
       inkscape:isstock="true">
      <path
         id="path992"
         d="M -2.5,-1.0 C -2.5,1.7600000 -4.7400000,4.0 -7.5,4.0 C -10.260000,4.0 -12.5,1.7600000 -12.5,-1.0 C -12.5,-3.7600000 -10.260000,-6.0 -7.5,-6.0 C -4.7400000,-6.0 -2.5,-3.7600000 -2.5,-1.0 z "
         style="fill-rule:evenodd;stroke:#264653;stroke-width:1pt;stroke-opacity:1;fill:#264653;fill-opacity:1"
         transform="scale(0.4) translate(7.4, 1)" />
    </marker>
    <marker
       inkscape:isstock="true"
       style="overflow:visible"
       id="marker5401"
       refX="0"
       refY="0"
       orient="auto"
       inkscape:stockid="Arrow2Mend">
      <path
         transform="scale(-0.6)"
         d="M 8.7185878,4.0337352 -2.2072895,0.01601326 8.7185884,-4.0017078 c -1.7454984,2.3720609 -1.7354408,5.6174519 -6e-7,8.035443 z"
         style="fill:#264653;fill-opacity:1;fill-rule:evenodd;stroke:#264653;stroke-width:0.625;stroke-linejoin:round;stroke-opacity:1"
         id="path5399"
         inkscape:connector-curvature="0" />
    </marker>
    <marker
       inkscape:isstock="true"
       style="overflow:visible"
       id="marker4973"
       refX="0"
       refY="0"
       orient="auto"
       inkscape:stockid="Arrow2Lend">
      <path
         transform="matrix(-1.1,0,0,-1.1,-1.1,0)"
         d="M 8.7185878,4.0337352 -2.2072895,0.01601326 8.7185884,-4.0017078 c -1.7454984,2.3720609 -1.7354408,5.6174519 -6e-7,8.035443 z"
         style="fill:#000000;fill-opacity:1;fill-rule:evenodd;stroke:#000000;stroke-width:0.625;stroke-linejoin:round;stroke-opacity:1"
         id="path4971"
         inkscape:connector-curvature="0" />
    </marker>
    <marker
       inkscape:stockid="Arrow1Lend"
       orient="auto"
       refY="0"
       refX="0"
       id="Arrow1Lend"
       style="overflow:visible"
       inkscape:isstock="true">
      <path
         id="path4532"
         d="M 0,0 5,-5 -12.5,0 5,5 Z"
         style="fill:#000000;fill-opacity:1;fill-rule:evenodd;stroke:#000000;stroke-width:1.00000003pt;stroke-opacity:1"
         transform="matrix(-0.8,0,0,-0.8,-10,0)"
         inkscape:connector-curvature="0" />
    </marker>
    <style
       id="style1344">.cls-1{fill:#1a1a1a}.cls-2{fill:#4d64ae}.cls-3{fill:#ca3c32}.cls-4{fill:#9259a3}.cls-5{fill:#399746}</style>
    <clipPath
       clipPathUnits="userSpaceOnUse"
       id="clipPath2138">
      <rect
         style="fill:none;fill-opacity:0.94509804;fill-rule:nonzero;stroke:#264653;stroke-width:0.66145831;stroke-linecap:butt;stroke-linejoin:miter;stroke-miterlimit:4;stroke-dasharray:none;stroke-dashoffset:0;stroke-opacity:0.94509804;paint-order:markers stroke fill"
         id="rect2140"
         width="56.885414"
         height="45.772915"
         x="-505.02551"
         y="-15.879046" />
    </clipPath>
    <clipPath
       clipPathUnits="userSpaceOnUse"
       id="clipPath940">
      <rect
         style="fill:none;fill-opacity:1;fill-rule:nonzero;stroke:#fefefe;stroke-width:1.00541663;stroke-linecap:round;stroke-linejoin:miter;stroke-miterlimit:4;stroke-dasharray:none;stroke-dashoffset:0;stroke-opacity:1;paint-order:markers stroke fill"
         id="rect942"
         width="55.834122"
         height="44.61631"
         x="-503.90009"
         y="-15.773171" />
    </clipPath>
    <clipPath
       clipPathUnits="userSpaceOnUse"
       id="clipPath970">
      <rect
         style="fill:none;fill-opacity:1;fill-rule:nonzero;stroke:#000000;stroke-width:1.17470133;stroke-linecap:round;stroke-linejoin:miter;stroke-miterlimit:4;stroke-dasharray:4.6988052, 1.1747013;stroke-dashoffset:0;stroke-opacity:1;paint-order:markers stroke fill"
         id="rect972"
         width="56.344025"
         height="45.636112"
         x="-504.41"
         y="-16.028122" />
    </clipPath>
  </defs>
  <sodipodi:namedview
     id="base"
     pagecolor="#ffffff"
     bordercolor="#666666"
     borderopacity="1.0"
     inkscape:pageopacity="0.0"
     inkscape:pageshadow="2"
     inkscape:zoom="3.2072343"
     inkscape:cx="109"
     inkscape:cy="99.714763"
     inkscape:document-units="mm"
     inkscape:current-layer="layer1"
     showgrid="false"
     inkscape:window-width="1880"
     inkscape:window-height="1055"
     inkscape:window-x="40"
     inkscape:window-y="0"
     inkscape:window-maximized="1"
     fit-margin-top="0"
     fit-margin-left="0"
     fit-margin-right="0"
     fit-margin-bottom="0" />
  <metadata
     id="metadata5">
    <rdf:RDF>
      <cc:Work
         rdf:about="">
        <dc:format>image/svg+xml</dc:format>
        <dc:type
           rdf:resource="http://purl.org/dc/dcmitype/StillImage" />
        <dc:title />
      </cc:Work>
    </rdf:RDF>
  </metadata>
  <g
     inkscape:label="Layer 1"
     inkscape:groupmode="layer"
     id="layer1"
     transform="translate(504.66495,16.56467)">
    <g
       id="g1123"
       transform="matrix(1.1195501,0,0,1.1195501,57.322483,-0.52836498)">
      <g
         id="g1098">
        <g
           id="g2282"
           transform="matrix(0.72412824,0,0,0.72412824,-544.0578,-298.52049)">
          <path
             sodipodi:nodetypes="ccccc"
             inkscape:connector-curvature="0"
             id="rect815"
             d="m 83.413862,413.43252 h 29.142848 l -11.70918,19.90562 H 71.704678 Z"
             style="fill:none;fill-opacity:1;fill-rule:nonzero;stroke:#000000;stroke-width:0.40000001;stroke-linecap:round;stroke-linejoin:miter;stroke-miterlimit:4;stroke-dasharray:none;stroke-dashoffset:0;stroke-opacity:1;paint-order:markers stroke fill" />
          <path
             transform="rotate(-14.191612)"
             d="m -7.7385341,430.68536 a 2.8145196,2.8145196 0 0 1 -3.9621039,0.32589 2.8145196,2.8145196 0 0 1 -0.335537,-3.9613 2.8145196,2.8145196 0 0 1 3.9604703,-0.34517 2.8145196,2.8145196 0 0 1 0.3548189,3.95961"
             sodipodi:open="true"
             sodipodi:end="0.69481034"
             sodipodi:start="0.70454753"
             sodipodi:ry="2.8145196"
             sodipodi:rx="2.8145196"
             sodipodi:cy="428.86243"
             sodipodi:cx="-9.8829298"
             sodipodi:type="arc"
             id="path847"
             style="fill:#389826;fill-opacity:1;fill-rule:nonzero;stroke:#000000;stroke-width:1.05499995;stroke-linecap:round;stroke-linejoin:miter;stroke-miterlimit:4;stroke-dasharray:none;stroke-dashoffset:0;stroke-opacity:1;paint-order:markers stroke fill" />
          <path
             transform="rotate(-14.191612)"
             style="fill:#cb3c33;fill-opacity:1;fill-rule:nonzero;stroke:#000000;stroke-width:1.05499995;stroke-linecap:round;stroke-linejoin:miter;stroke-miterlimit:4;stroke-dasharray:none;stroke-dashoffset:0;stroke-opacity:1;paint-order:markers stroke fill"
             id="path849"
             sodipodi:type="arc"
             sodipodi:cx="-13.88251"
             sodipodi:cy="435.67651"
             sodipodi:rx="2.8145196"
             sodipodi:ry="2.8145196"
             sodipodi:start="0.70454753"
             sodipodi:end="0.69481034"
             sodipodi:open="true"
             d="m -11.738114,437.49945 a 2.8145196,2.8145196 0 0 1 -3.962105,0.32589 2.8145196,2.8145196 0 0 1 -0.335537,-3.9613 2.8145196,2.8145196 0 0 1 3.960471,-0.34518 2.8145196,2.8145196 0 0 1 0.354819,3.95962" />
          <path
             transform="rotate(-14.191612)"
             d="m -3.5908214,437.49945 a 2.8145196,2.8145196 0 0 1 -3.9621041,0.32589 2.8145196,2.8145196 0 0 1 -0.335537,-3.9613 2.8145196,2.8145196 0 0 1 3.9604705,-0.34518 2.8145196,2.8145196 0 0 1 0.3548189,3.95962"
             sodipodi:open="true"
             sodipodi:end="0.69481034"
             sodipodi:start="0.70454753"
             sodipodi:ry="2.8145196"
             sodipodi:rx="2.8145196"
             sodipodi:cy="435.67651"
             sodipodi:cx="-5.7352171"
             sodipodi:type="arc"
             id="path851"
             style="fill:#9558b2;fill-opacity:1;fill-rule:nonzero;stroke:#000000;stroke-width:1.05499995;stroke-linecap:round;stroke-linejoin:miter;stroke-miterlimit:4;stroke-dasharray:none;stroke-dashoffset:0;stroke-opacity:1;paint-order:markers stroke fill" />
          <path
             transform="rotate(-14.191612)"
             style="fill:#4063d8;fill-opacity:1;fill-rule:nonzero;stroke:#000000;stroke-width:1.05499995;stroke-linecap:round;stroke-linejoin:miter;stroke-miterlimit:4;stroke-dasharray:none;stroke-dashoffset:0;stroke-opacity:1;paint-order:markers stroke fill"
             id="path853"
             sodipodi:type="arc"
             sodipodi:cx="-26.721985"
             sodipodi:cy="435.67651"
             sodipodi:rx="2.8145196"
             sodipodi:ry="2.8145196"
             sodipodi:start="0.70454753"
             sodipodi:end="0.69481034"
             sodipodi:open="true"
             d="m -24.577589,437.49945 a 2.8145196,2.8145196 0 0 1 -3.962104,0.32589 2.8145196,2.8145196 0 0 1 -0.335537,-3.9613 2.8145196,2.8145196 0 0 1 3.96047,-0.34518 2.8145196,2.8145196 0 0 1 0.354819,3.95962" />
        </g>
        <path
           id="path928"
           style="fill:none;stroke:#848484;stroke-width:0.19643745;stroke-linecap:butt;stroke-linejoin:miter;stroke-miterlimit:4;stroke-dasharray:0.39287488, 0.19643744;stroke-dashoffset:0;stroke-opacity:1"
           d="M -454.11893,-10.065492 V 21.661655 M -498.394,-10.065492 v 31.727147 m 31.62505,-31.727147 v 31.727147 m 6.32501,-31.727147 v 31.727147 m -12.65002,-31.727147 v 31.727147 m -6.32501,-31.727147 v 31.727147 m -6.32501,-31.727147 v 31.727147 m -6.32501,-31.727147 v 31.727147"
           inkscape:connector-curvature="0"
           sodipodi:nodetypes="cccccccccccccccc" />
        <path
           id="path950"
           style="fill:none;stroke:#848484;stroke-width:0.19643745;stroke-linecap:butt;stroke-linejoin:miter;stroke-miterlimit:4;stroke-dasharray:0.39287488, 0.19643744;stroke-dashoffset:0;stroke-opacity:1"
           d="m -454.28474,-10.012818 h -44.22958 m 44.22958,6.325016 h -44.22958 m 44.22958,25.300053 h -44.22958 m 44.22958,-6.325016 h -44.22958 m 44.22958,-6.3250105 h -44.22958 m 44.22958,-6.3250106 h -44.22958"
           inkscape:connector-curvature="0"
           sodipodi:nodetypes="cccccccccccc" />
      </g>
      <path
         d="m -451.01276,-117.88406 a 2.0380731,2.0380731 0 0 1 -2.86908,0.23598 2.0380731,2.0380731 0 0 1 -0.24297,-2.86848 2.0380731,2.0380731 0 0 1 2.86789,-0.24996 2.0380731,2.0380731 0 0 1 0.25693,2.86727"
         sodipodi:open="true"
         sodipodi:end="0.69481034"
         sodipodi:start="0.70454753"
         sodipodi:ry="2.0380731"
         sodipodi:rx="2.0380731"
         sodipodi:cy="-119.2041"
         sodipodi:cx="-452.56558"
         sodipodi:type="arc"
         id="path962"
         style="fill:#cb3a32;fill-opacity:0.49803922;fill-rule:nonzero;stroke:#000000;stroke-width:0.10583333;stroke-linecap:round;stroke-linejoin:miter;stroke-miterlimit:4;stroke-dasharray:none;stroke-dashoffset:0;stroke-opacity:0.28795812;paint-order:markers stroke fill"
         transform="rotate(-14.191612)" />
      <path
         style="fill:#9458b1;fill-opacity:0.5254902;fill-rule:nonzero;stroke:#000000;stroke-width:0.10583333;stroke-linecap:round;stroke-linejoin:miter;stroke-miterlimit:4;stroke-dasharray:none;stroke-dashoffset:0;stroke-opacity:0.28795812;paint-order:markers stroke fill"
         id="path964"
         sodipodi:type="arc"
         sodipodi:cx="-446.66589"
         sodipodi:cy="-119.2041"
         sodipodi:rx="2.0380731"
         sodipodi:ry="2.0380731"
         sodipodi:start="0.70454753"
         sodipodi:end="0.69481034"
         sodipodi:open="true"
         d="m -445.11308,-117.88406 a 2.0380731,2.0380731 0 0 1 -2.86907,0.23598 2.0380731,2.0380731 0 0 1 -0.24297,-2.86848 2.0380731,2.0380731 0 0 1 2.86789,-0.24996 2.0380731,2.0380731 0 0 1 0.25693,2.86727"
         transform="rotate(-14.191612)" />
      <path
         d="m -460.31019,-117.88406 a 2.0380731,2.0380731 0 0 1 -2.86907,0.23598 2.0380731,2.0380731 0 0 1 -0.24297,-2.86848 2.0380731,2.0380731 0 0 1 2.86789,-0.24996 2.0380731,2.0380731 0 0 1 0.25693,2.86727"
         sodipodi:open="true"
         sodipodi:end="0.69481034"
         sodipodi:start="0.70454753"
         sodipodi:ry="2.0380731"
         sodipodi:rx="2.0380731"
         sodipodi:cy="-119.2041"
         sodipodi:cx="-461.86301"
         sodipodi:type="arc"
         id="path966"
         style="fill:#3f62da;fill-opacity:0.42745098;fill-rule:nonzero;stroke:#000000;stroke-width:0.10583333;stroke-linecap:round;stroke-linejoin:miter;stroke-miterlimit:4;stroke-dasharray:none;stroke-dashoffset:0;stroke-opacity:0.28795812;paint-order:markers stroke fill"
         transform="rotate(-14.191612)" />
      <path
         transform="rotate(-14.191612)"
         style="fill:#3f62da;fill-opacity:0.42745098;fill-rule:nonzero;stroke:#000000;stroke-width:0.10583333;stroke-linecap:round;stroke-linejoin:miter;stroke-miterlimit:4;stroke-dasharray:none;stroke-dashoffset:0;stroke-opacity:0.28795812;paint-order:markers stroke fill"
         id="path978"
         sodipodi:type="arc"
         sodipodi:cx="-441.4039"
         sodipodi:cy="-114.03033"
         sodipodi:rx="2.0380731"
         sodipodi:ry="2.0380731"
         sodipodi:start="0.70454753"
         sodipodi:end="0.69481034"
         sodipodi:open="true"
         d="m -439.85108,-112.71029 a 2.0380731,2.0380731 0 0 1 -2.86907,0.23599 2.0380731,2.0380731 0 0 1 -0.24298,-2.86849 2.0380731,2.0380731 0 0 1 2.86789,-0.24995 2.0380731,2.0380731 0 0 1 0.25694,2.86727" />
      <path
         d="m -442.30772,-100.81474 a 2.0380731,2.0380731 0 0 1 -2.86907,0.23599 2.0380731,2.0380731 0 0 1 -0.24297,-2.86849 2.0380731,2.0380731 0 0 1 2.86789,-0.24995 2.0380731,2.0380731 0 0 1 0.25693,2.86727"
         sodipodi:open="true"
         sodipodi:end="0.69481034"
         sodipodi:start="0.70454753"
         sodipodi:ry="2.0380731"
         sodipodi:rx="2.0380731"
         sodipodi:cy="-102.13477"
         sodipodi:cx="-443.86053"
         sodipodi:type="arc"
         id="path986"
         style="fill:#cb3a32;fill-opacity:0.49803922;fill-rule:nonzero;stroke:#000000;stroke-width:0.10583333;stroke-linecap:round;stroke-linejoin:miter;stroke-miterlimit:4;stroke-dasharray:none;stroke-dashoffset:0;stroke-opacity:0.28795812;paint-order:markers stroke fill"
         transform="rotate(-14.191612)" />
      <path
         d="m -451.60514,-100.81474 a 2.0380731,2.0380731 0 0 1 -2.86907,0.23599 2.0380731,2.0380731 0 0 1 -0.24297,-2.86849 2.0380731,2.0380731 0 0 1 2.86788,-0.24995 2.0380731,2.0380731 0 0 1 0.25694,2.86727"
         sodipodi:open="true"
         sodipodi:end="0.69481034"
         sodipodi:start="0.70454753"
         sodipodi:ry="2.0380731"
         sodipodi:rx="2.0380731"
         sodipodi:cy="-102.13477"
         sodipodi:cx="-453.15796"
         sodipodi:type="arc"
         id="path990"
         style="fill:#3f62da;fill-opacity:0.42745098;fill-rule:nonzero;stroke:#000000;stroke-width:0.10583333;stroke-linecap:round;stroke-linejoin:miter;stroke-miterlimit:4;stroke-dasharray:none;stroke-dashoffset:0;stroke-opacity:0.28795812;paint-order:markers stroke fill"
         transform="rotate(-14.191612)" />
      <path
         transform="rotate(-14.191612)"
         d="m -471.62467,-99.027199 a 2.0380731,2.0380731 0 0 1 -2.86907,0.235989 2.0380731,2.0380731 0 0 1 -0.24298,-2.86849 2.0380731,2.0380731 0 0 1 2.86789,-0.24995 2.0380731,2.0380731 0 0 1 0.25694,2.867269"
         sodipodi:open="true"
         sodipodi:end="0.69481034"
         sodipodi:start="0.70454753"
         sodipodi:ry="2.0380731"
         sodipodi:rx="2.0380731"
         sodipodi:cy="-100.34724"
         sodipodi:cx="-473.17749"
         sodipodi:type="arc"
         id="path996"
         style="fill:#389825;fill-opacity:0.48627451;fill-rule:nonzero;stroke:#000000;stroke-width:0.10583333;stroke-linecap:round;stroke-linejoin:miter;stroke-miterlimit:4;stroke-dasharray:none;stroke-dashoffset:0;stroke-opacity:0.28795812;paint-order:markers stroke fill" />
      <path
         style="fill:#389825;fill-opacity:0.48627451;fill-rule:nonzero;stroke:#000000;stroke-width:0.10583333;stroke-linecap:round;stroke-linejoin:miter;stroke-miterlimit:4;stroke-dasharray:none;stroke-dashoffset:0;stroke-opacity:0.28795812;paint-order:markers stroke fill"
         id="path1009"
         sodipodi:type="arc"
         sodipodi:cx="-452.71835"
         sodipodi:cy="-95.17347"
         sodipodi:rx="2.0380731"
         sodipodi:ry="2.0380731"
         sodipodi:start="0.70454753"
         sodipodi:end="0.69481034"
         sodipodi:open="true"
         d="m -451.16554,-93.853432 a 2.0380731,2.0380731 0 0 1 -2.86907,0.235989 2.0380731,2.0380731 0 0 1 -0.24297,-2.868489 2.0380731,2.0380731 0 0 1 2.86789,-0.249954 2.0380731,2.0380731 0 0 1 0.25693,2.867272"
         transform="rotate(-14.191612)" />
      <path
         style="fill:#389825;fill-opacity:0.48627451;fill-rule:nonzero;stroke:#000000;stroke-width:0.10583333;stroke-linecap:round;stroke-linejoin:miter;stroke-miterlimit:4;stroke-dasharray:none;stroke-dashoffset:0;stroke-opacity:0.28795812;paint-order:markers stroke fill"
         id="path1021"
         sodipodi:type="arc"
         sodipodi:cx="-481.88254"
         sodipodi:cy="-117.41657"
         sodipodi:rx="2.0380731"
         sodipodi:ry="2.0380731"
         sodipodi:start="0.70454753"
         sodipodi:end="0.69481034"
         sodipodi:open="true"
         d="m -480.32972,-116.09653 a 2.0380731,2.0380731 0 0 1 -2.86907,0.23598 2.0380731,2.0380731 0 0 1 -0.24297,-2.86848 2.0380731,2.0380731 0 0 1 2.86788,-0.24996 2.0380731,2.0380731 0 0 1 0.25694,2.86727"
         transform="rotate(-14.191612)" />
      <path
         d="m -483.22593,-111.16226 a 2.0380731,2.0380731 0 0 1 -2.86907,0.23599 2.0380731,2.0380731 0 0 1 -0.24297,-2.86849 2.0380731,2.0380731 0 0 1 2.86789,-0.24996 2.0380731,2.0380731 0 0 1 0.25693,2.86728"
         sodipodi:open="true"
         sodipodi:end="0.69481034"
         sodipodi:start="0.70454753"
         sodipodi:ry="2.0380731"
         sodipodi:rx="2.0380731"
         sodipodi:cy="-112.4823"
         sodipodi:cx="-484.77875"
         sodipodi:type="arc"
         id="path1023"
         style="fill:#cb3a32;fill-opacity:0.49803922;fill-rule:nonzero;stroke:#000000;stroke-width:0.10583333;stroke-linecap:round;stroke-linejoin:miter;stroke-miterlimit:4;stroke-dasharray:none;stroke-dashoffset:0;stroke-opacity:0.28795812;paint-order:markers stroke fill"
         transform="rotate(-14.191612)" />
      <path
         style="fill:#9458b1;fill-opacity:0.5254902;fill-rule:nonzero;stroke:#000000;stroke-width:0.10583333;stroke-linecap:round;stroke-linejoin:miter;stroke-miterlimit:4;stroke-dasharray:none;stroke-dashoffset:0;stroke-opacity:0.28795812;paint-order:markers stroke fill"
         id="path1025"
         sodipodi:type="arc"
         sodipodi:cx="-478.87909"
         sodipodi:cy="-112.4823"
         sodipodi:rx="2.0380731"
         sodipodi:ry="2.0380731"
         sodipodi:start="0.70454753"
         sodipodi:end="0.69481034"
         sodipodi:open="true"
         d="m -477.32627,-111.16226 a 2.0380731,2.0380731 0 0 1 -2.86907,0.23599 2.0380731,2.0380731 0 0 1 -0.24298,-2.86849 2.0380731,2.0380731 0 0 1 2.86789,-0.24996 2.0380731,2.0380731 0 0 1 0.25694,2.86728"
         transform="rotate(-14.191612)" />
      <path
         transform="rotate(-14.191612)"
         style="fill:#cb3c33;fill-opacity:0.49738219;fill-rule:nonzero;stroke:#000000;stroke-width:0.10583333;stroke-linecap:round;stroke-linejoin:miter;stroke-miterlimit:4;stroke-dasharray:none;stroke-dashoffset:0;stroke-opacity:0.2670157;paint-order:markers stroke fill"
         id="path1035"
         sodipodi:type="arc"
         sodipodi:cx="-473.02472"
         sodipodi:cy="-124.37787"
         sodipodi:rx="2.0380731"
         sodipodi:ry="2.0380731"
         sodipodi:start="0.70454753"
         sodipodi:end="0.69481034"
         sodipodi:open="true"
         d="m -471.4719,-123.05783 a 2.0380731,2.0380731 0 0 1 -2.86907,0.23599 2.0380731,2.0380731 0 0 1 -0.24297,-2.86849 2.0380731,2.0380731 0 0 1 2.86788,-0.24995 2.0380731,2.0380731 0 0 1 0.25694,2.86727" />
      <path
         transform="rotate(-14.191612)"
         d="m -465.57221,-123.05783 a 2.0380731,2.0380731 0 0 1 -2.86907,0.23599 2.0380731,2.0380731 0 0 1 -0.24298,-2.86849 2.0380731,2.0380731 0 0 1 2.86789,-0.24995 2.0380731,2.0380731 0 0 1 0.25694,2.86727"
         sodipodi:open="true"
         sodipodi:end="0.69481034"
         sodipodi:start="0.70454753"
         sodipodi:ry="2.0380731"
         sodipodi:rx="2.0380731"
         sodipodi:cy="-124.37787"
         sodipodi:cx="-467.12503"
         sodipodi:type="arc"
         id="path1037"
         style="fill:#9558b2;fill-opacity:0.52356023;fill-rule:nonzero;stroke:#000000;stroke-width:0.10583333;stroke-linecap:round;stroke-linejoin:miter;stroke-miterlimit:4;stroke-dasharray:none;stroke-dashoffset:0;stroke-opacity:0.28795812;paint-order:markers stroke fill" />
      <path
         transform="rotate(-14.191612)"
         style="fill:#4063d8;fill-opacity:0.42931937;fill-rule:nonzero;stroke:#000000;stroke-width:0.10583333;stroke-linecap:round;stroke-linejoin:miter;stroke-miterlimit:4;stroke-dasharray:none;stroke-dashoffset:0;stroke-opacity:0.28795812;paint-order:markers stroke fill"
         id="path1039"
         sodipodi:type="arc"
         sodipodi:cx="-482.32214"
         sodipodi:cy="-124.37787"
         sodipodi:rx="2.0380731"
         sodipodi:ry="2.0380731"
         sodipodi:start="0.70454753"
         sodipodi:end="0.69481034"
         sodipodi:open="true"
         d="m -480.76933,-123.05783 a 2.0380731,2.0380731 0 0 1 -2.86907,0.23599 2.0380731,2.0380731 0 0 1 -0.24297,-2.86849 2.0380731,2.0380731 0 0 1 2.86789,-0.24995 2.0380731,2.0380731 0 0 1 0.25693,2.86727" />
    </g>
  </g>
</svg>
