<?xml version="1.0" encoding="UTF-8" standalone="no"?>
<!-- Created with Inkscape (http://www.inkscape.org/) -->

<svg
   width="101.6977mm"
   height="101.6977mm"
   viewBox="0 0 101.6977 101.6977"
   version="1.1"
   id="svg5"
   sodipodi:docname="NeighborPair.svg"
   inkscape:version="1.2.2 (b0a8486541, 2022-12-01)"
   xmlns:inkscape="http://www.inkscape.org/namespaces/inkscape"
   xmlns:sodipodi="http://sodipodi.sourceforge.net/DTD/sodipodi-0.dtd"
   xmlns:xlink="http://www.w3.org/1999/xlink"
   xmlns="http://www.w3.org/2000/svg"
   xmlns:svg="http://www.w3.org/2000/svg">
  <sodipodi:namedview
     id="namedview7"
     pagecolor="#ffffff"
     bordercolor="#000000"
     borderopacity="0.25"
     inkscape:showpageshadow="2"
     inkscape:pageopacity="0.0"
     inkscape:pagecheckerboard="0"
     inkscape:deskcolor="#d1d1d1"
     inkscape:document-units="mm"
     showgrid="false"
     inkscape:zoom="1.4738334"
     inkscape:cx="302.61222"
     inkscape:cy="216.44237"
     inkscape:window-width="1890"
     inkscape:window-height="1048"
     inkscape:window-x="30"
     inkscape:window-y="0"
     inkscape:window-maximized="1"
     inkscape:current-layer="layer1" />
  <defs
     id="defs2">
    <marker
       style="overflow:visible"
       id="TriangleStart"
       refX="0"
       refY="0"
       orient="auto-start-reverse"
       inkscape:stockid="TriangleStart"
       markerWidth="5.3244081"
       markerHeight="6.155385"
       viewBox="0 0 5.3244081 6.1553851"
       inkscape:isstock="true"
       inkscape:collect="always"
       preserveAspectRatio="xMidYMid">
      <path
         transform="scale(0.5)"
         style="fill:context-stroke;fill-rule:evenodd;stroke:context-stroke;stroke-width:1pt"
         d="M 5.77,0 -2.88,5 V -5 Z"
         id="path4005" />
    </marker>
    <linearGradient
       inkscape:collect="always"
       id="linearGradient2506">
      <stop
         style="stop-color:#ffffff;stop-opacity:0;"
         offset="0.5768795"
         id="stop2502" />
      <stop
         style="stop-color:#ffffff;stop-opacity:1;"
         offset="0.86277986"
         id="stop2512" />
    </linearGradient>
    <radialGradient
       inkscape:collect="always"
       xlink:href="#linearGradient2506"
       id="radialGradient2508"
       cx="103.48544"
       cy="90.637985"
       fx="103.48544"
       fy="90.637985"
       r="51.032383"
       gradientTransform="matrix(1,0,0,0.99991752,-27.243827,-3.6516957)"
       gradientUnits="userSpaceOnUse" />
    <clipPath
       id="clipPath8044">
      <path
         clip-rule="nonzero"
         d="m 6,3 h 7 v 7.847656 H 6 Z m 0,0"
         id="path6331" />
    </clipPath>
    <clipPath
       id="clipPath5752">
      <path
         clip-rule="nonzero"
         d="m 13,3 h 6 v 7.847656 h -6 z m 0,0"
         id="path9526" />
    </clipPath>
    <clipPath
       id="clipPath6378">
      <path
         clip-rule="nonzero"
         d="m 46,3 h 6 v 7.847656 h -6 z m 0,0"
         id="path3839" />
    </clipPath>
    <clipPath
       id="clipPath6313">
      <path
         clip-rule="nonzero"
         d="m 52,4 h 11 v 6.847656 H 52 Z m 0,0"
         id="path4523" />
    </clipPath>
    <clipPath
       id="clipPath2183">
      <path
         clip-rule="nonzero"
         d="m 0,5 h 6 v 7.859375 H 0 Z m 0,0"
         id="path6622" />
    </clipPath>
    <clipPath
       id="clipPath3858">
      <path
         clip-rule="nonzero"
         d="m 0,3 h 6 v 7.847656 H 0 Z m 0,0"
         id="path4814" />
    </clipPath>
    <clipPath
       id="clipPath1994">
      <path
         clip-rule="nonzero"
         d="m 0,3 h 6 v 7.847656 H 0 Z m 0,0"
         id="path435" />
    </clipPath>
    <clipPath
       id="clipPath4696">
      <path
         clip-rule="nonzero"
         d="m 6,5 h 4 v 5.847656 H 6 Z m 0,0"
         id="path8777" />
    </clipPath>
  </defs>
  <g
     inkscape:label="Layer 1"
     inkscape:groupmode="layer"
     id="layer1"
     transform="translate(-25.39281,-36.125826)">
    <path
       style="opacity:0.434514;fill:none;stroke:#000000;stroke-width:0.351;stroke-miterlimit:4.1;stroke-dasharray:0.351, 0.351;stroke-dashoffset:0;stroke-opacity:1"
       d="M 86.026783,101.62691 H 42.793758 l -4.753198,7.04556 c 3.937881,7.01619 9.717457,12.82347 16.714742,16.79485 3.76883,2.13066 7.830452,3.69562 12.054562,4.64467"
       id="path2073"
       sodipodi:nodetypes="ccccc" />
    <path
       style="fill:none;stroke:#000000;stroke-width:1.15089;stroke-miterlimit:4.1;stroke-dasharray:none;stroke-opacity:0.35693"
       d="M 42.802474,101.56754 64.419144,69.525125 H 107.65248 L 86.035813,101.56754 Z"
       id="path292"
       sodipodi:nodetypes="ccccc" />
    <path
       style="fill:#800080;stroke:#000000;stroke-width:0.6;stroke-miterlimit:4.1;stroke-dasharray:none;stroke-opacity:1"
       id="path1096"
       sodipodi:type="arc"
       sodipodi:cx="91.217384"
       sodipodi:cy="78.504517"
       sodipodi:rx="2.4300625"
       sodipodi:ry="2.4300625"
       sodipodi:start="5.2350444"
       sodipodi:end="5.2200093"
       sodipodi:open="true"
       sodipodi:arc-type="arc"
       d="m 92.43043,76.398875 a 2.4300625,2.4300625 0 0 1 0.89714,3.310764 2.4300625,2.4300625 0 0 1 -3.307368,0.909578 2.4300625,2.4300625 0 0 1 -0.922003,-3.303925 2.4300625,2.4300625 0 0 1 3.300436,-0.934416" />
    <path
       style="fill:#008000;stroke:#000000;stroke-width:0.6;stroke-miterlimit:4.1;stroke-dasharray:none;stroke-opacity:1"
       id="path1098"
       sodipodi:type="arc"
       sodipodi:cx="57.968391"
       sodipodi:cy="93.030472"
       sodipodi:rx="2.4300625"
       sodipodi:ry="2.4300625"
       sodipodi:start="5.2350444"
       sodipodi:end="5.2200093"
       sodipodi:open="true"
       sodipodi:arc-type="arc"
       d="m 59.181437,90.924831 a 2.4300625,2.4300625 0 0 1 0.89714,3.310763 2.4300625,2.4300625 0 0 1 -3.307368,0.909579 2.4300625,2.4300625 0 0 1 -0.922003,-3.303926 2.4300625,2.4300625 0 0 1 3.300436,-0.934416" />
    <path
       style="opacity:0.345385;fill:#008000;stroke:#000000;stroke-width:0.6;stroke-miterlimit:4.1;stroke-dasharray:none;stroke-opacity:1"
       id="path1104"
       sodipodi:type="arc"
       sodipodi:cx="79.676949"
       sodipodi:cy="60.89772"
       sodipodi:rx="2.4300625"
       sodipodi:ry="2.4300625"
       sodipodi:start="5.2350444"
       sodipodi:end="5.2200093"
       sodipodi:open="true"
       sodipodi:arc-type="arc"
       d="m 80.889994,58.792079 a 2.4300625,2.4300625 0 0 1 0.89714,3.310764 2.4300625,2.4300625 0 0 1 -3.307367,0.909578 2.4300625,2.4300625 0 0 1 -0.922004,-3.303926 2.4300625,2.4300625 0 0 1 3.300437,-0.934415" />
    <path
       style="opacity:0.345385;fill:#008000;stroke:#000000;stroke-width:0.6;stroke-miterlimit:4.1;stroke-dasharray:none;stroke-opacity:1"
       id="path1110"
       sodipodi:type="arc"
       sodipodi:cx="101.33727"
       sodipodi:cy="93.030472"
       sodipodi:rx="2.4300625"
       sodipodi:ry="2.4300625"
       sodipodi:start="5.2350444"
       sodipodi:end="5.2200093"
       sodipodi:open="true"
       sodipodi:arc-type="arc"
       d="m 102.55032,90.924831 a 2.4300625,2.4300625 0 0 1 0.89714,3.310763 2.4300625,2.4300625 0 0 1 -3.30737,0.909579 2.4300625,2.4300625 0 0 1 -0.922003,-3.303926 2.4300625,2.4300625 0 0 1 3.300433,-0.934416" />
    <path
       style="opacity:0.345385;fill:#800080;stroke:#000000;stroke-width:0.6;stroke-miterlimit:4.1;stroke-dasharray:none;stroke-opacity:1"
       id="path1120"
       sodipodi:type="arc"
       sodipodi:cx="47.770683"
       sodipodi:cy="78.504517"
       sodipodi:rx="2.4300625"
       sodipodi:ry="2.4300625"
       sodipodi:start="5.2350444"
       sodipodi:end="5.2200093"
       sodipodi:open="true"
       sodipodi:arc-type="arc"
       d="m 48.983729,76.398875 a 2.4300625,2.4300625 0 0 1 0.89714,3.310764 2.4300625,2.4300625 0 0 1 -3.307368,0.909578 2.4300625,2.4300625 0 0 1 -0.922003,-3.303925 2.4300625,2.4300625 0 0 1 3.300436,-0.934416" />
    <path
       style="opacity:0.345385;fill:#800080;stroke:#000000;stroke-width:0.6;stroke-miterlimit:4.1;stroke-dasharray:none;stroke-opacity:1"
       id="path1126"
       sodipodi:type="arc"
       sodipodi:cx="69.47924"
       sodipodi:cy="46.371765"
       sodipodi:rx="2.4300625"
       sodipodi:ry="2.4300625"
       sodipodi:start="5.2350444"
       sodipodi:end="5.2200093"
       sodipodi:open="true"
       sodipodi:arc-type="arc"
       d="m 70.692286,44.266124 a 2.4300625,2.4300625 0 0 1 0.89714,3.310763 2.4300625,2.4300625 0 0 1 -3.307368,0.909579 2.4300625,2.4300625 0 0 1 -0.922003,-3.303926 2.4300625,2.4300625 0 0 1 3.300436,-0.934416" />
    <path
       style="opacity:0.345385;fill:#800080;stroke:#000000;stroke-width:0.6;stroke-miterlimit:4.1;stroke-dasharray:none;stroke-opacity:1"
       id="path1132"
       sodipodi:type="arc"
       sodipodi:cx="69.59182"
       sodipodi:cy="110.60629"
       sodipodi:rx="2.4300625"
       sodipodi:ry="2.4300625"
       sodipodi:start="5.2350444"
       sodipodi:end="5.2200093"
       sodipodi:open="true"
       sodipodi:arc-type="arc"
       d="m 70.804865,108.50065 a 2.4300625,2.4300625 0 0 1 0.897141,3.31076 2.4300625,2.4300625 0 0 1 -3.307368,0.90958 2.4300625,2.4300625 0 0 1 -0.922004,-3.30392 2.4300625,2.4300625 0 0 1 3.300437,-0.93442" />
    <path
       style="opacity:0.345385;fill:#008000;stroke:#000000;stroke-width:0.6;stroke-miterlimit:4.1;stroke-dasharray:none;stroke-opacity:1"
       id="path1140"
       sodipodi:type="arc"
       sodipodi:cx="79.711716"
       sodipodi:cy="125.13224"
       sodipodi:rx="2.4300625"
       sodipodi:ry="2.4300625"
       sodipodi:start="5.2350444"
       sodipodi:end="5.2200093"
       sodipodi:open="true"
       sodipodi:arc-type="arc"
       d="m 80.924761,123.0266 a 2.4300625,2.4300625 0 0 1 0.897141,3.31076 2.4300625,2.4300625 0 0 1 -3.307368,0.90958 2.4300625,2.4300625 0 0 1 -0.922004,-3.30392 2.4300625,2.4300625 0 0 1 3.300437,-0.93442" />
    <path
       style="opacity:0.434514;fill:none;stroke:#000000;stroke-width:0.351;stroke-miterlimit:4.1;stroke-dasharray:0.351, 0.351;stroke-dashoffset:0;stroke-opacity:1"
       d="m 86.162683,101.62691 -19.237064,28.51506 c 18.901864,4.20477 38.338451,-4.39279 47.942811,-21.20698 1.32999,-2.32981 2.44495,-4.77595 3.33106,-7.30808 z"
       id="path2075" />
    <path
       style="opacity:0.434514;fill:none;stroke:#000000;stroke-width:0.351;stroke-miterlimit:4.1;stroke-dasharray:0.351, 0.351;stroke-dashoffset:0;stroke-opacity:1"
       d="m 34.858842,101.62691 c 0.831405,2.37366 1.864037,4.67196 3.086634,6.86986"
       id="path2071"
       sodipodi:nodetypes="cc" />
    <path
       style="opacity:0.434514;fill:none;stroke:#000000;stroke-width:0.351;stroke-miterlimit:4.1;stroke-dasharray:0.351, 0.351;stroke-dashoffset:0;stroke-opacity:1"
       d="m 118.21964,101.56748 c 3.64215,-10.448493 3.22979,-21.883472 -1.15548,-32.042488 h -9.27592 L 86.171473,101.56748"
       id="path2069"
       sodipodi:nodetypes="cccc" />
    <path
       style="opacity:0.434514;fill:none;stroke:#000000;stroke-width:0.351;stroke-miterlimit:4.1;stroke-dasharray:0.351, 0.351;stroke-dashoffset:0;stroke-opacity:1"
       d="M 35.996241,69.524992 C 31.609785,79.683551 31.196137,91.118536 34.837138,101.56748 H 42.58912 L 64.205888,69.524992 Z"
       id="path2067" />
    <path
       style="opacity:0.434514;fill:none;stroke:#000000;stroke-width:0.351;stroke-miterlimit:4.1;stroke-dasharray:0.351, 0.351;stroke-dashoffset:0;stroke-opacity:1"
       d="m 117.02385,69.434559 c -1.13278,-2.606397 -2.51447,-5.097381 -4.12585,-7.438306 l -5.01829,7.438306"
       id="path2065"
       sodipodi:nodetypes="ccc" />
    <path
       style="opacity:0.434514;fill:none;stroke:#000000;stroke-width:0.351;stroke-miterlimit:4.1;stroke-dasharray:0.351, 0.351;stroke-dashoffset:0;stroke-opacity:1"
       d="m 112.82979,61.896517 c -3.72385,-5.381649 -8.5971,-9.868516 -14.267347,-13.136149 l -0.57774,-0.327111 c -4.89029,-2.716878 -10.25221,-4.479985 -15.80058,-5.195549 l -8.94638,13.261046 -8.726964,12.935805 h 43.233531"
       id="path2063"
       sodipodi:nodetypes="ccccccc" />
    <path
       style="opacity:0.434514;fill:none;stroke:#000000;stroke-width:0.351;stroke-miterlimit:4.1;stroke-dasharray:0.351, 0.351;stroke-dashoffset:0;stroke-opacity:1"
       d="m 81.984133,43.218071 c -2.02946,-0.258041 -4.0744,-0.374766 -6.12004,-0.349333 -15.738317,0.231765 -30.164031,8.821598 -37.866941,22.547978 -0.721643,1.305284 -1.376706,2.646283 -1.962671,4.017843"
       id="path1142"
       sodipodi:nodetypes="cccc" />
    <path
       id="path1138-3"
       style="opacity:0.345385;fill:#800080;stroke:#000000;stroke-width:0.6;stroke-miterlimit:4.1;stroke-dasharray:none;stroke-opacity:1"
       d="m 112.73023,108.31962 a 2.4300625,2.4300625 0 0 0 -2.0836,1.24075 2.4300625,2.4300625 0 0 0 0.92243,3.30368 2.4300625,2.4300625 0 0 0 0.48989,0.21032 44.167732,44.167732 0 0 0 2.55591,-3.90157 2.4300625,2.4300625 0 0 0 -0.63562,-0.52917 l -0.032,-0.0176 a 2.4300625,2.4300625 0 0 0 -1.21698,-0.30644 z" />
    <path
       id="path2099"
       style="fill:url(#radialGradient2508);fill-opacity:1;stroke:none;stroke-width:0.351;stroke-miterlimit:4.1;stroke-dasharray:0.351, 0.351;stroke-dashoffset:0;stroke-opacity:1"
       d="M 77.801953,36.149769 A 50.849014,50.849014 0 0 0 31.897783,62.090304 50.849014,50.849014 0 0 0 51.190662,131.22459 50.849014,50.849014 0 0 0 120.39729,112.19164 50.849014,50.849014 0 0 0 101.62427,42.914214 L 100.9592,42.537492 A 50.849014,50.849014 0 0 0 77.801953,36.149769 Z m -1.02887,9.171016 a 41.656975,41.656975 0 0 1 19.71766,5.249809 l 0.54518,0.308508 A 41.656975,41.656975 0 0 1 112.41483,107.63326 41.656975,41.656975 0 0 1 55.719068,123.22559 41.656975,41.656975 0 0 1 39.913831,66.588738 41.656975,41.656975 0 0 1 76.773083,45.320785 Z" />
    <g
       id="g3625"
       transform="translate(-30.592864,-6.5173759)">
      <g
         fill="#000000"
         fill-opacity="1"
         id="g41"
         transform="matrix(0.54429424,0,0,0.54429424,114.14314,80.008448)">
        <g
           id="use39"
           transform="translate(-0.19499999,8.5209999)">
          <path
             d="M 6.390625,-7.140625 C 6.25,-7 5.8125,-6.59375 5.8125,-6.421875 c 0,0.125 0.109375,0.234375 0.21875,0.234375 0.109375,0 0.15625,-0.078125 0.25,-0.203125 0.28125,-0.34375 0.609375,-0.578125 0.875,-0.734375 0.125,-0.078125 0.203125,-0.109375 0.203125,-0.234375 0,-0.109375 -0.09375,-0.171875 -0.15625,-0.234375 C 6.859375,-7.8125 6.78125,-8.140625 6.734375,-8.28125 6.703125,-8.375 6.671875,-8.515625 6.5,-8.515625 c -0.0625,0 -0.21875,0.046875 -0.21875,0.21875 0,0.109375 0.078125,0.390625 0.3125,0.71875 H 2.5625 c -0.203125,0 -0.40625,0 -0.40625,0.234375 0,0.203125 0.21875,0.203125 0.40625,0.203125 z m 0,0"
             id="path103" />
        </g>
      </g>
      <g
         fill="#000000"
         fill-opacity="1"
         id="g45"
         transform="matrix(0.54429424,0,0,0.54429424,114.14314,80.008448)">
        <g
           id="use43"
           transform="translate(0.00345632,8.5209999)">
          <path
             d="m 5.671875,-4.875 c -0.390625,0.0625 -0.53125,0.359375 -0.53125,0.578125 0,0.296875 0.21875,0.390625 0.390625,0.390625 0.359375,0 0.609375,-0.3125 0.609375,-0.640625 0,-0.5 -0.578125,-0.71875 -1.078125,-0.71875 -0.71875,0 -1.125,0.71875 -1.234375,0.9375 -0.28125,-0.890625 -1.015625,-0.9375 -1.234375,-0.9375 -1.21875,0 -1.859375,1.5625 -1.859375,1.828125 0,0.046875 0.046875,0.109375 0.125,0.109375 0.09375,0 0.125,-0.078125 0.140625,-0.125 0.40625,-1.328125 1.21875,-1.578125 1.5625,-1.578125 0.53125,0 0.640625,0.5 0.640625,0.78125 0,0.265625 -0.078125,0.546875 -0.21875,1.125 L 2.578125,-1.5 c -0.171875,0.71875 -0.515625,1.375 -1.15625,1.375 -0.0625,0 -0.359375,0 -0.609375,-0.15625 C 1.25,-0.359375 1.34375,-0.71875 1.34375,-0.859375 1.34375,-1.09375 1.15625,-1.25 0.9375,-1.25 c -0.296875,0 -0.609375,0.265625 -0.609375,0.640625 0,0.5 0.5625,0.734375 1.078125,0.734375 0.578125,0 0.984375,-0.453125 1.234375,-0.953125 C 2.828125,-0.125 3.4375,0.125 3.875,0.125 5.09375,0.125 5.734375,-1.453125 5.734375,-1.703125 5.734375,-1.765625 5.6875,-1.8125 5.625,-1.8125 5.515625,-1.8125 5.5,-1.75 5.46875,-1.65625 5.140625,-0.609375 4.453125,-0.125 3.90625,-0.125 3.484375,-0.125 3.265625,-0.4375 3.265625,-0.921875 3.265625,-1.1875 3.3125,-1.375 3.5,-2.15625 L 3.921875,-3.796875 C 4.09375,-4.5 4.5,-5.03125 5.0625,-5.03125 c 0.015625,0 0.359375,0 0.609375,0.15625 z m 0,0"
             id="path107" />
        </g>
      </g>
    </g>
    <g
       id="g4065"
       transform="translate(32.878901,4.4349588)">
      <g
         fill="#000000"
         fill-opacity="1"
         id="g49"
         transform="matrix(0.54429424,0,0,0.54429424,58.185925,89.785545)">
        <g
           id="use47"
           transform="translate(6.5238218,8.5209999)">
          <path
             d="M 6.390625,-7.140625 C 6.25,-7 5.8125,-6.59375 5.8125,-6.421875 c 0,0.125 0.109375,0.234375 0.21875,0.234375 0.109375,0 0.15625,-0.078125 0.25,-0.203125 0.28125,-0.34375 0.609375,-0.578125 0.875,-0.734375 0.125,-0.078125 0.203125,-0.109375 0.203125,-0.234375 0,-0.109375 -0.09375,-0.171875 -0.15625,-0.234375 C 6.859375,-7.8125 6.78125,-8.140625 6.734375,-8.28125 6.703125,-8.375 6.671875,-8.515625 6.5,-8.515625 c -0.0625,0 -0.21875,0.046875 -0.21875,0.21875 0,0.109375 0.078125,0.390625 0.3125,0.71875 H 2.5625 c -0.203125,0 -0.40625,0 -0.40625,0.234375 0,0.203125 0.21875,0.203125 0.40625,0.203125 z m 0,0"
             id="path111" />
        </g>
      </g>
      <g
         clip-path="url(#clipPath8044)"
         id="g55"
         transform="matrix(0.54429424,0,0,0.54429424,58.185925,89.785545)">
        <g
           fill="#000000"
           fill-opacity="1"
           id="g53">
          <g
             id="use51"
             transform="translate(6.650548,8.5209999)">
            <path
               d="m 3.140625,1.34375 c -0.3125,0.453125 -0.78125,0.859375 -1.375,0.859375 C 1.625,2.203125 1.046875,2.171875 0.875,1.625 c 0.03125,0.015625 0.09375,0.015625 0.109375,0.015625 0.359375,0 0.609375,-0.3125 0.609375,-0.59375 C 1.59375,0.78125 1.359375,0.6875 1.1875,0.6875 c -0.203125,0 -0.609375,0.140625 -0.609375,0.71875 0,0.609375 0.515625,1.03125 1.1875,1.03125 C 2.96875,2.4375 4.171875,1.34375 4.5,0.015625 L 5.671875,-4.65625 C 5.6875,-4.703125 5.71875,-4.78125 5.71875,-4.859375 5.71875,-5.03125 5.5625,-5.15625 5.390625,-5.15625 5.28125,-5.15625 5.03125,-5.109375 4.9375,-4.75 L 4.046875,-1.234375 C 4,-1.015625 4,-0.984375 3.890625,-0.859375 3.65625,-0.53125 3.265625,-0.125 2.6875,-0.125 c -0.671875,0 -0.734375,-0.65625 -0.734375,-0.96875 0,-0.6875 0.328125,-1.609375 0.65625,-2.46875 0.125,-0.34375 0.203125,-0.515625 0.203125,-0.75 0,-0.5 -0.359375,-0.953125 -0.953125,-0.953125 -1.09375,0 -1.53125,1.734375 -1.53125,1.828125 0,0.046875 0.046875,0.109375 0.125,0.109375 0.109375,0 0.125,-0.046875 0.171875,-0.21875 0.28125,-1 0.734375,-1.484375 1.203125,-1.484375 0.109375,0 0.3125,0 0.3125,0.390625 0,0.3125 -0.125,0.65625 -0.3125,1.109375 C 1.25,-1.953125 1.25,-1.5625 1.25,-1.28125 1.25,-0.140625 2.0625,0.125 2.65625,0.125 3,0.125 3.4375,0.015625 3.84375,-0.4375 l 0.015625,0.015625 C 3.6875,0.28125 3.5625,0.75 3.140625,1.34375 Z m 0,0"
               id="path115" />
          </g>
        </g>
      </g>
    </g>
    <g
       id="g3648"
       transform="translate(-20.154826,2.7440157)">
      <g
         fill="#000000"
         fill-opacity="1"
         id="g59"
         transform="matrix(0.54429424,0,0,0.54429424,114.14314,80.008448)">
        <g
           id="use57"
           transform="translate(12.65684,8.5209999)">
          <path
             d="M 6.390625,-7.140625 C 6.25,-7 5.8125,-6.59375 5.8125,-6.421875 c 0,0.125 0.109375,0.234375 0.21875,0.234375 0.109375,0 0.15625,-0.078125 0.25,-0.203125 0.28125,-0.34375 0.609375,-0.578125 0.875,-0.734375 0.125,-0.078125 0.203125,-0.109375 0.203125,-0.234375 0,-0.109375 -0.09375,-0.171875 -0.15625,-0.234375 C 6.859375,-7.8125 6.78125,-8.140625 6.734375,-8.28125 6.703125,-8.375 6.671875,-8.515625 6.5,-8.515625 c -0.0625,0 -0.21875,0.046875 -0.21875,0.21875 0,0.109375 0.078125,0.390625 0.3125,0.71875 H 2.5625 c -0.203125,0 -0.40625,0 -0.40625,0.234375 0,0.203125 0.21875,0.203125 0.40625,0.203125 z m 0,0"
             id="path119" />
        </g>
      </g>
      <g
         clip-path="url(#clipPath5752)"
         id="g65"
         transform="matrix(0.54429424,0,0,0.54429424,114.14314,80.008448)">
        <g
           fill="#000000"
           fill-opacity="1"
           id="g63">
          <g
             id="use61"
             transform="translate(12.783565,8.5209999)">
            <path
               d="m 3.140625,1.34375 c -0.3125,0.453125 -0.78125,0.859375 -1.375,0.859375 C 1.625,2.203125 1.046875,2.171875 0.875,1.625 c 0.03125,0.015625 0.09375,0.015625 0.109375,0.015625 0.359375,0 0.609375,-0.3125 0.609375,-0.59375 C 1.59375,0.78125 1.359375,0.6875 1.1875,0.6875 c -0.203125,0 -0.609375,0.140625 -0.609375,0.71875 0,0.609375 0.515625,1.03125 1.1875,1.03125 C 2.96875,2.4375 4.171875,1.34375 4.5,0.015625 L 5.671875,-4.65625 C 5.6875,-4.703125 5.71875,-4.78125 5.71875,-4.859375 5.71875,-5.03125 5.5625,-5.15625 5.390625,-5.15625 5.28125,-5.15625 5.03125,-5.109375 4.9375,-4.75 L 4.046875,-1.234375 C 4,-1.015625 4,-0.984375 3.890625,-0.859375 3.65625,-0.53125 3.265625,-0.125 2.6875,-0.125 c -0.671875,0 -0.734375,-0.65625 -0.734375,-0.96875 0,-0.6875 0.328125,-1.609375 0.65625,-2.46875 0.125,-0.34375 0.203125,-0.515625 0.203125,-0.75 0,-0.5 -0.359375,-0.953125 -0.953125,-0.953125 -1.09375,0 -1.53125,1.734375 -1.53125,1.828125 0,0.046875 0.046875,0.109375 0.125,0.109375 0.109375,0 0.125,-0.046875 0.171875,-0.21875 0.28125,-1 0.734375,-1.484375 1.203125,-1.484375 0.109375,0 0.3125,0 0.3125,0.390625 0,0.3125 -0.125,0.65625 -0.3125,1.109375 C 1.25,-1.953125 1.25,-1.5625 1.25,-1.28125 1.25,-0.140625 2.0625,0.125 2.65625,0.125 3,0.125 3.4375,0.015625 3.84375,-0.4375 l 0.015625,0.015625 C 3.6875,0.28125 3.5625,0.75 3.140625,1.34375 Z m 0,0"
               id="path123" />
          </g>
        </g>
      </g>
      <g
         fill="#000000"
         fill-opacity="1"
         id="g69"
         transform="matrix(0.54429424,0,0,0.54429424,114.14314,80.008448)">
        <g
           id="use67"
           transform="translate(21.582001,8.5209999)">
          <path
             d="m 7.875,-2.75 c 0.203125,0 0.421875,0 0.421875,-0.234375 0,-0.25 -0.21875,-0.25 -0.421875,-0.25 H 1.40625 c -0.203125,0 -0.421875,0 -0.421875,0.25 0,0.234375 0.21875,0.234375 0.421875,0.234375 z m 0,0"
             id="path127" />
        </g>
      </g>
      <g
         fill="#000000"
         fill-opacity="1"
         id="g73"
         transform="matrix(0.54429424,0,0,0.54429424,114.14314,80.008448)">
        <g
           id="use71"
           transform="translate(33.341999,8.5209999)">
          <path
             d="M 6.390625,-7.140625 C 6.25,-7 5.8125,-6.59375 5.8125,-6.421875 c 0,0.125 0.109375,0.234375 0.21875,0.234375 0.109375,0 0.15625,-0.078125 0.25,-0.203125 0.28125,-0.34375 0.609375,-0.578125 0.875,-0.734375 0.125,-0.078125 0.203125,-0.109375 0.203125,-0.234375 0,-0.109375 -0.09375,-0.171875 -0.15625,-0.234375 C 6.859375,-7.8125 6.78125,-8.140625 6.734375,-8.28125 6.703125,-8.375 6.671875,-8.515625 6.5,-8.515625 c -0.0625,0 -0.21875,0.046875 -0.21875,0.21875 0,0.109375 0.078125,0.390625 0.3125,0.71875 H 2.5625 c -0.203125,0 -0.40625,0 -0.40625,0.234375 0,0.203125 0.21875,0.203125 0.40625,0.203125 z m 0,0"
             id="path131" />
        </g>
      </g>
      <g
         id="use75"
         transform="matrix(0.54429424,0,0,0.54429424,132.39902,84.646379)"
         style="fill:#000000;fill-opacity:1">
        <path
           d="m 5.671875,-4.875 c -0.390625,0.0625 -0.53125,0.359375 -0.53125,0.578125 0,0.296875 0.21875,0.390625 0.390625,0.390625 0.359375,0 0.609375,-0.3125 0.609375,-0.640625 0,-0.5 -0.578125,-0.71875 -1.078125,-0.71875 -0.71875,0 -1.125,0.71875 -1.234375,0.9375 -0.28125,-0.890625 -1.015625,-0.9375 -1.234375,-0.9375 -1.21875,0 -1.859375,1.5625 -1.859375,1.828125 0,0.046875 0.046875,0.109375 0.125,0.109375 0.09375,0 0.125,-0.078125 0.140625,-0.125 0.40625,-1.328125 1.21875,-1.578125 1.5625,-1.578125 0.53125,0 0.640625,0.5 0.640625,0.78125 0,0.265625 -0.078125,0.546875 -0.21875,1.125 L 2.578125,-1.5 c -0.171875,0.71875 -0.515625,1.375 -1.15625,1.375 -0.0625,0 -0.359375,0 -0.609375,-0.15625 C 1.25,-0.359375 1.34375,-0.71875 1.34375,-0.859375 1.34375,-1.09375 1.15625,-1.25 0.9375,-1.25 c -0.296875,0 -0.609375,0.265625 -0.609375,0.640625 0,0.5 0.5625,0.734375 1.078125,0.734375 0.578125,0 0.984375,-0.453125 1.234375,-0.953125 C 2.828125,-0.125 3.4375,0.125 3.875,0.125 5.09375,0.125 5.734375,-1.453125 5.734375,-1.703125 5.734375,-1.765625 5.6875,-1.8125 5.625,-1.8125 5.515625,-1.8125 5.5,-1.75 5.46875,-1.65625 5.140625,-0.609375 4.453125,-0.125 3.90625,-0.125 3.484375,-0.125 3.265625,-0.4375 3.265625,-0.921875 3.265625,-1.1875 3.3125,-1.375 3.5,-2.15625 L 3.921875,-3.796875 C 4.09375,-4.5 4.5,-5.03125 5.0625,-5.03125 c 0.015625,0 0.359375,0 0.609375,0.15625 z m 0,0"
           id="path135" />
      </g>
    </g>
    <path
       style="opacity:1;fill:#008000;fill-opacity:0.988222;stroke:#000000;stroke-width:0.651;stroke-miterlimit:4.1;stroke-dasharray:none;stroke-dashoffset:0;stroke-opacity:1;marker-end:url(#TriangleStart)"
       d="m 91.162442,78.377187 8.771706,12.949404"
       id="path3794"
       sodipodi:nodetypes="cc" />
    <g
       inkscape:label=""
       transform="matrix(1.5281102,0,0,1.5281102,62.036758,88.399817)"
       id="g6518">
      <g
         fill="#000000"
         fill-opacity="1"
         id="g23"
         transform="matrix(0.352778,0,0,0.352778,-0.115658,-0.00189615)">
        <g
           id="use21"
           transform="translate(-0.127,8.5209999)">
          <path
             d="M 6.390625,-7.140625 C 6.25,-7 5.8125,-6.59375 5.8125,-6.421875 c 0,0.125 0.109375,0.234375 0.21875,0.234375 0.109375,0 0.15625,-0.078125 0.25,-0.203125 0.28125,-0.34375 0.609375,-0.578125 0.875,-0.734375 0.125,-0.078125 0.203125,-0.109375 0.203125,-0.234375 0,-0.109375 -0.09375,-0.171875 -0.15625,-0.234375 C 6.859375,-7.8125 6.78125,-8.140625 6.734375,-8.28125 6.703125,-8.375 6.671875,-8.515625 6.5,-8.515625 c -0.0625,0 -0.21875,0.046875 -0.21875,0.21875 0,0.109375 0.078125,0.390625 0.3125,0.71875 H 2.5625 c -0.203125,0 -0.40625,0 -0.40625,0.234375 0,0.203125 0.21875,0.203125 0.40625,0.203125 z m 0,0"
             id="path41" />
        </g>
      </g>
      <g
         clip-path="url(#clipPath1994)"
         id="g29"
         transform="matrix(0.352778,0,0,0.352778,-0.115658,-0.00189615)">
        <g
           fill="#000000"
           fill-opacity="1"
           id="g27">
          <g
             id="use25"
             transform="translate(-2.7488e-4,8.5209999)">
            <path
               d="m 3.140625,1.34375 c -0.3125,0.453125 -0.78125,0.859375 -1.375,0.859375 C 1.625,2.203125 1.046875,2.171875 0.875,1.625 c 0.03125,0.015625 0.09375,0.015625 0.109375,0.015625 0.359375,0 0.609375,-0.3125 0.609375,-0.59375 C 1.59375,0.78125 1.359375,0.6875 1.1875,0.6875 c -0.203125,0 -0.609375,0.140625 -0.609375,0.71875 0,0.609375 0.515625,1.03125 1.1875,1.03125 C 2.96875,2.4375 4.171875,1.34375 4.5,0.015625 L 5.671875,-4.65625 C 5.6875,-4.703125 5.71875,-4.78125 5.71875,-4.859375 5.71875,-5.03125 5.5625,-5.15625 5.390625,-5.15625 5.28125,-5.15625 5.03125,-5.109375 4.9375,-4.75 L 4.046875,-1.234375 C 4,-1.015625 4,-0.984375 3.890625,-0.859375 3.65625,-0.53125 3.265625,-0.125 2.6875,-0.125 c -0.671875,0 -0.734375,-0.65625 -0.734375,-0.96875 0,-0.6875 0.328125,-1.609375 0.65625,-2.46875 0.125,-0.34375 0.203125,-0.515625 0.203125,-0.75 0,-0.5 -0.359375,-0.953125 -0.953125,-0.953125 -1.09375,0 -1.53125,1.734375 -1.53125,1.828125 0,0.046875 0.046875,0.109375 0.125,0.109375 0.109375,0 0.125,-0.046875 0.171875,-0.21875 0.28125,-1 0.734375,-1.484375 1.203125,-1.484375 0.109375,0 0.3125,0 0.3125,0.390625 0,0.3125 -0.125,0.65625 -0.3125,1.109375 C 1.25,-1.953125 1.25,-1.5625 1.25,-1.28125 1.25,-0.140625 2.0625,0.125 2.65625,0.125 3,0.125 3.4375,0.015625 3.84375,-0.4375 l 0.015625,0.015625 C 3.6875,0.28125 3.5625,0.75 3.140625,1.34375 Z m 0,0"
               id="path45" />
          </g>
        </g>
      </g>
      <g
         clip-path="url(#clipPath4696)"
         id="g35"
         transform="matrix(0.352778,0,0,0.352778,-0.115658,-0.00189615)">
        <g
           fill="#000000"
           fill-opacity="1"
           id="g33">
          <g
             id="use31"
             transform="translate(5.7080002,10.315)">
            <path
               d="m 3.890625,-2.546875 c 0,-0.84375 -0.078125,-1.359375 -0.34375,-1.875 -0.34375,-0.703125 -1,-0.875 -1.4375,-0.875 -1,0 -1.375,0.75 -1.484375,0.96875 -0.28125,0.578125 -0.296875,1.375 -0.296875,1.78125 0,0.53125 0.015625,1.328125 0.40625,1.96875 0.359375,0.59375 0.953125,0.75 1.375,0.75 0.390625,0 1.0625,-0.125 1.46875,-0.90625 0.296875,-0.578125 0.3125,-1.296875 0.3125,-1.8125 z M 2.109375,-0.0625 C 1.84375,-0.0625 1.296875,-0.1875 1.125,-1.015625 1.03125,-1.46875 1.03125,-2.21875 1.03125,-2.640625 1.03125,-3.1875 1.03125,-3.75 1.125,-4.1875 1.296875,-5 1.90625,-5.078125 2.109375,-5.078125 c 0.265625,0 0.828125,0.140625 0.984375,0.859375 0.09375,0.4375 0.09375,1.046875 0.09375,1.578125 0,0.46875 0,1.1875 -0.09375,1.640625 -0.171875,0.828125 -0.71875,0.9375 -0.984375,0.9375 z m 0,0"
               id="path49" />
          </g>
        </g>
      </g>
    </g>
  </g>
</svg>
